<svg width="21" height="21" viewBox="0 0 21 21" fill="none" xmlns="http://www.w3.org/2000/svg">
<path d="M20.4667 10.2334C20.4667 4.58167 15.8851 5.91278e-05 10.2333 5.91278e-05C4.58162 5.91278e-05 0 4.58167 0 10.2334C0 15.3411 3.74218 19.5747 8.63437 20.3424V13.1915H6.03607V10.2334H8.63437V7.97886C8.63437 5.41413 10.1621 3.99745 12.4997 3.99745C13.6193 3.99745 14.7904 4.19732 14.7904 4.19732V6.71568H13.5C12.2287 6.71568 11.8323 7.50451 11.8323 8.31378V10.2334H14.6704L14.2167 13.1915H11.8323V20.3424C16.7245 19.5747 20.4667 15.3411 20.4667 10.2334Z" fill="white"/>
</svg>
