<svg width="22" height="22" viewBox="0 0 22 22" fill="none" xmlns="http://www.w3.org/2000/svg">
<path fill-rule="evenodd" clip-rule="evenodd" d="M20.8415 10.875C20.8415 10.121 20.7738 9.39595 20.6481 8.69995H10.6335V12.8131H16.3561C16.1096 14.1423 15.3605 15.2685 14.2343 16.0225V18.6905H17.6708C19.6815 16.8393 20.8415 14.1133 20.8415 10.875Z" fill="#4285F4"/>
<path fill-rule="evenodd" clip-rule="evenodd" d="M10.6334 21.2663C13.5044 21.2663 15.9114 20.3142 17.6707 18.6902L14.2342 16.0222C13.282 16.6602 12.064 17.0372 10.6334 17.0372C7.86388 17.0372 5.51971 15.1667 4.68354 12.6533H1.13104V15.4083C2.88071 18.8835 6.47671 21.2663 10.6334 21.2663Z" fill="#34A853"/>
<path fill-rule="evenodd" clip-rule="evenodd" d="M4.6835 12.6536C4.47083 12.0156 4.35 11.3341 4.35 10.6332C4.35 9.93241 4.47083 9.25091 4.6835 8.61291V5.85791H1.131C0.410833 7.29341 0 8.91741 0 10.6332C0 12.3491 0.410833 13.9731 1.131 15.4086L4.6835 12.6536Z" fill="#FBBC05"/>
<path fill-rule="evenodd" clip-rule="evenodd" d="M10.6334 4.22917C12.1945 4.22917 13.5962 4.76567 14.6982 5.81933L17.748 2.7695C15.9065 1.05367 13.4995 0 10.6334 0C6.47671 0 2.88071 2.38283 1.13104 5.858L4.68354 8.613C5.51971 6.09967 7.86388 4.22917 10.6334 4.22917Z" fill="#EA4335"/>
</svg>
